<mxfile host="Electron" modified="2024-01-20T01:00:50.474Z" agent="Mozilla/5.0 (Macintosh; Intel Mac OS X 10_15_7) AppleWebKit/537.36 (KHTML, like Gecko) draw.io/22.1.18 Chrome/120.0.6099.199 Electron/28.1.2 Safari/537.36" etag="IowC-qjBJcBOjhxyOKxI" version="22.1.18" type="device">
  <diagram name="Page-1" id="Rww9Z16cphmomNmTI1Lq">
    <mxGraphModel dx="1283" dy="1302" grid="0" gridSize="10" guides="1" tooltips="1" connect="1" arrows="1" fold="1" page="1" pageScale="1" pageWidth="850" pageHeight="1100" math="0" shadow="0">
      <root>
        <mxCell id="0" />
        <mxCell id="1" parent="0" />
        <mxCell id="8P9D--Pd9AcajZx-1P5X-4" value="" style="group" vertex="1" connectable="0" parent="1">
          <mxGeometry x="198" y="280" width="50" height="50" as="geometry" />
        </mxCell>
        <mxCell id="8P9D--Pd9AcajZx-1P5X-5" value="" style="sketch=0;points=[[0.5,0,0],[1,0.5,0],[0.5,1,0],[0,0.5,0],[0.145,0.145,0],[0.8555,0.145,0],[0.855,0.8555,0],[0.145,0.855,0]];verticalLabelPosition=bottom;html=1;verticalAlign=top;aspect=fixed;align=center;pointerEvents=1;shape=mxgraph.cisco19.rect;prIcon=router;fillColor=#FAFAFA;strokeColor=#005073;fontFamily=Helvetica;fontSize=11;fontColor=default;" vertex="1" parent="8P9D--Pd9AcajZx-1P5X-4">
          <mxGeometry width="50" height="50" as="geometry" />
        </mxCell>
        <mxCell id="8P9D--Pd9AcajZx-1P5X-6" value="" style="group" vertex="1" connectable="0" parent="1">
          <mxGeometry x="328" y="280" width="50" height="50" as="geometry" />
        </mxCell>
        <mxCell id="8P9D--Pd9AcajZx-1P5X-7" value="" style="sketch=0;points=[[0.5,0,0],[1,0.5,0],[0.5,1,0],[0,0.5,0],[0.145,0.145,0],[0.8555,0.145,0],[0.855,0.8555,0],[0.145,0.855,0]];verticalLabelPosition=bottom;html=1;verticalAlign=top;aspect=fixed;align=center;pointerEvents=1;shape=mxgraph.cisco19.rect;prIcon=router;fillColor=#FAFAFA;strokeColor=#005073;fontFamily=Helvetica;fontSize=11;fontColor=default;" vertex="1" parent="8P9D--Pd9AcajZx-1P5X-6">
          <mxGeometry width="50" height="50" as="geometry" />
        </mxCell>
        <mxCell id="8P9D--Pd9AcajZx-1P5X-8" style="edgeStyle=orthogonalEdgeStyle;rounded=0;orthogonalLoop=1;jettySize=auto;html=1;exitX=1;exitY=0.5;exitDx=0;exitDy=0;exitPerimeter=0;endArrow=none;endFill=0;" edge="1" parent="1" target="8P9D--Pd9AcajZx-1P5X-5">
          <mxGeometry relative="1" as="geometry">
            <mxPoint x="128" y="305.0000000000002" as="sourcePoint" />
          </mxGeometry>
        </mxCell>
        <mxCell id="8P9D--Pd9AcajZx-1P5X-9" style="edgeStyle=orthogonalEdgeStyle;rounded=0;orthogonalLoop=1;jettySize=auto;html=1;exitX=1;exitY=0.5;exitDx=0;exitDy=0;exitPerimeter=0;endArrow=none;endFill=0;" edge="1" parent="1" source="8P9D--Pd9AcajZx-1P5X-5" target="8P9D--Pd9AcajZx-1P5X-7">
          <mxGeometry relative="1" as="geometry" />
        </mxCell>
        <mxCell id="8P9D--Pd9AcajZx-1P5X-10" value="" style="group" vertex="1" connectable="0" parent="1">
          <mxGeometry x="448" y="280" width="50" height="50" as="geometry" />
        </mxCell>
        <mxCell id="8P9D--Pd9AcajZx-1P5X-11" value="" style="sketch=0;points=[[0.5,0,0],[1,0.5,0],[0.5,1,0],[0,0.5,0],[0.145,0.145,0],[0.8555,0.145,0],[0.855,0.8555,0],[0.145,0.855,0]];verticalLabelPosition=bottom;html=1;verticalAlign=top;aspect=fixed;align=center;pointerEvents=1;shape=mxgraph.cisco19.rect;prIcon=router;fillColor=#FAFAFA;strokeColor=#005073;fontFamily=Helvetica;fontSize=11;fontColor=default;" vertex="1" parent="8P9D--Pd9AcajZx-1P5X-10">
          <mxGeometry width="50" height="50" as="geometry" />
        </mxCell>
        <mxCell id="8P9D--Pd9AcajZx-1P5X-12" value="" style="group" vertex="1" connectable="0" parent="1">
          <mxGeometry x="568" y="280" width="50" height="50" as="geometry" />
        </mxCell>
        <mxCell id="8P9D--Pd9AcajZx-1P5X-13" value="" style="sketch=0;points=[[0.5,0,0],[1,0.5,0],[0.5,1,0],[0,0.5,0],[0.145,0.145,0],[0.8555,0.145,0],[0.855,0.8555,0],[0.145,0.855,0]];verticalLabelPosition=bottom;html=1;verticalAlign=top;aspect=fixed;align=center;pointerEvents=1;shape=mxgraph.cisco19.rect;prIcon=router;fillColor=#FAFAFA;strokeColor=#005073;fontFamily=Helvetica;fontSize=11;fontColor=default;" vertex="1" parent="8P9D--Pd9AcajZx-1P5X-12">
          <mxGeometry width="50" height="50" as="geometry" />
        </mxCell>
        <mxCell id="8P9D--Pd9AcajZx-1P5X-16" style="edgeStyle=orthogonalEdgeStyle;rounded=0;orthogonalLoop=1;jettySize=auto;html=1;exitX=1;exitY=0.5;exitDx=0;exitDy=0;exitPerimeter=0;endArrow=none;endFill=0;" edge="1" parent="1" source="8P9D--Pd9AcajZx-1P5X-11" target="8P9D--Pd9AcajZx-1P5X-13">
          <mxGeometry relative="1" as="geometry" />
        </mxCell>
        <mxCell id="8P9D--Pd9AcajZx-1P5X-17" style="edgeStyle=orthogonalEdgeStyle;rounded=0;orthogonalLoop=1;jettySize=auto;html=1;exitX=1;exitY=0.5;exitDx=0;exitDy=0;exitPerimeter=0;endArrow=none;endFill=0;" edge="1" parent="1" source="8P9D--Pd9AcajZx-1P5X-13">
          <mxGeometry relative="1" as="geometry">
            <mxPoint x="698" y="305.0000000000002" as="targetPoint" />
          </mxGeometry>
        </mxCell>
        <mxCell id="8P9D--Pd9AcajZx-1P5X-18" style="edgeStyle=orthogonalEdgeStyle;rounded=0;orthogonalLoop=1;jettySize=auto;html=1;exitX=1;exitY=0.5;exitDx=0;exitDy=0;exitPerimeter=0;endArrow=none;endFill=0;entryX=0;entryY=0.5;entryDx=0;entryDy=0;entryPerimeter=0;" edge="1" parent="1" source="8P9D--Pd9AcajZx-1P5X-7" target="8P9D--Pd9AcajZx-1P5X-11">
          <mxGeometry relative="1" as="geometry">
            <mxPoint x="508" y="315" as="sourcePoint" />
            <mxPoint x="578" y="315" as="targetPoint" />
          </mxGeometry>
        </mxCell>
        <mxCell id="8P9D--Pd9AcajZx-1P5X-19" value="" style="image;aspect=fixed;html=1;points=[];align=center;fontSize=12;image=img/lib/azure2/networking/Virtual_Router.svg;" vertex="1" parent="1">
          <mxGeometry x="78" y="282" width="48" height="48" as="geometry" />
        </mxCell>
        <mxCell id="8P9D--Pd9AcajZx-1P5X-20" value="" style="image;aspect=fixed;html=1;points=[];align=center;fontSize=12;image=img/lib/azure2/networking/Virtual_Router.svg;" vertex="1" parent="1">
          <mxGeometry x="698" y="282" width="48" height="48" as="geometry" />
        </mxCell>
        <mxCell id="8P9D--Pd9AcajZx-1P5X-21" value="Host" style="text;html=1;strokeColor=none;fillColor=none;align=center;verticalAlign=middle;whiteSpace=wrap;rounded=0;" vertex="1" parent="1">
          <mxGeometry x="72" y="330" width="60" height="30" as="geometry" />
        </mxCell>
        <mxCell id="8P9D--Pd9AcajZx-1P5X-22" value="Router" style="text;html=1;strokeColor=none;fillColor=none;align=center;verticalAlign=middle;whiteSpace=wrap;rounded=0;" vertex="1" parent="1">
          <mxGeometry x="193" y="330" width="60" height="30" as="geometry" />
        </mxCell>
        <mxCell id="8P9D--Pd9AcajZx-1P5X-23" value="Router" style="text;html=1;strokeColor=none;fillColor=none;align=center;verticalAlign=middle;whiteSpace=wrap;rounded=0;" vertex="1" parent="1">
          <mxGeometry x="323" y="330" width="60" height="30" as="geometry" />
        </mxCell>
        <mxCell id="8P9D--Pd9AcajZx-1P5X-24" value="Router" style="text;html=1;strokeColor=none;fillColor=none;align=center;verticalAlign=middle;whiteSpace=wrap;rounded=0;" vertex="1" parent="1">
          <mxGeometry x="443" y="330" width="60" height="30" as="geometry" />
        </mxCell>
        <mxCell id="8P9D--Pd9AcajZx-1P5X-25" value="Router" style="text;html=1;strokeColor=none;fillColor=none;align=center;verticalAlign=middle;whiteSpace=wrap;rounded=0;" vertex="1" parent="1">
          <mxGeometry x="563" y="330" width="60" height="30" as="geometry" />
        </mxCell>
        <mxCell id="8P9D--Pd9AcajZx-1P5X-26" value="Host" style="text;html=1;strokeColor=none;fillColor=none;align=center;verticalAlign=middle;whiteSpace=wrap;rounded=0;" vertex="1" parent="1">
          <mxGeometry x="692" y="330" width="60" height="30" as="geometry" />
        </mxCell>
        <mxCell id="8P9D--Pd9AcajZx-1P5X-27" value="" style="group" vertex="1" connectable="0" parent="1">
          <mxGeometry x="214" y="948" width="50" height="50" as="geometry" />
        </mxCell>
        <mxCell id="8P9D--Pd9AcajZx-1P5X-28" value="" style="sketch=0;points=[[0.5,0,0],[1,0.5,0],[0.5,1,0],[0,0.5,0],[0.145,0.145,0],[0.8555,0.145,0],[0.855,0.8555,0],[0.145,0.855,0]];verticalLabelPosition=bottom;html=1;verticalAlign=top;aspect=fixed;align=center;pointerEvents=1;shape=mxgraph.cisco19.rect;prIcon=router;fillColor=#FAFAFA;strokeColor=#005073;fontFamily=Helvetica;fontSize=11;fontColor=default;" vertex="1" parent="8P9D--Pd9AcajZx-1P5X-27">
          <mxGeometry width="50" height="50" as="geometry" />
        </mxCell>
        <mxCell id="8P9D--Pd9AcajZx-1P5X-29" value="" style="group" vertex="1" connectable="0" parent="1">
          <mxGeometry x="344" y="948" width="50" height="50" as="geometry" />
        </mxCell>
        <mxCell id="8P9D--Pd9AcajZx-1P5X-30" value="" style="sketch=0;points=[[0.5,0,0],[1,0.5,0],[0.5,1,0],[0,0.5,0],[0.145,0.145,0],[0.8555,0.145,0],[0.855,0.8555,0],[0.145,0.855,0]];verticalLabelPosition=bottom;html=1;verticalAlign=top;aspect=fixed;align=center;pointerEvents=1;shape=mxgraph.cisco19.rect;prIcon=router;fillColor=#FAFAFA;strokeColor=#005073;fontFamily=Helvetica;fontSize=11;fontColor=default;" vertex="1" parent="8P9D--Pd9AcajZx-1P5X-29">
          <mxGeometry width="50" height="50" as="geometry" />
        </mxCell>
        <mxCell id="8P9D--Pd9AcajZx-1P5X-31" style="edgeStyle=orthogonalEdgeStyle;rounded=0;orthogonalLoop=1;jettySize=auto;html=1;exitX=1;exitY=0.5;exitDx=0;exitDy=0;exitPerimeter=0;endArrow=none;endFill=0;" edge="1" parent="1" target="8P9D--Pd9AcajZx-1P5X-28">
          <mxGeometry relative="1" as="geometry">
            <mxPoint x="144" y="973.0000000000002" as="sourcePoint" />
          </mxGeometry>
        </mxCell>
        <mxCell id="8P9D--Pd9AcajZx-1P5X-32" style="edgeStyle=orthogonalEdgeStyle;rounded=0;orthogonalLoop=1;jettySize=auto;html=1;exitX=1;exitY=0.5;exitDx=0;exitDy=0;exitPerimeter=0;endArrow=none;endFill=0;" edge="1" parent="1" source="8P9D--Pd9AcajZx-1P5X-28" target="8P9D--Pd9AcajZx-1P5X-30">
          <mxGeometry relative="1" as="geometry" />
        </mxCell>
        <mxCell id="8P9D--Pd9AcajZx-1P5X-33" value="" style="group" vertex="1" connectable="0" parent="1">
          <mxGeometry x="464" y="948" width="50" height="50" as="geometry" />
        </mxCell>
        <mxCell id="8P9D--Pd9AcajZx-1P5X-34" value="" style="sketch=0;points=[[0.5,0,0],[1,0.5,0],[0.5,1,0],[0,0.5,0],[0.145,0.145,0],[0.8555,0.145,0],[0.855,0.8555,0],[0.145,0.855,0]];verticalLabelPosition=bottom;html=1;verticalAlign=top;aspect=fixed;align=center;pointerEvents=1;shape=mxgraph.cisco19.rect;prIcon=router;fillColor=#FAFAFA;strokeColor=#005073;fontFamily=Helvetica;fontSize=11;fontColor=default;" vertex="1" parent="8P9D--Pd9AcajZx-1P5X-33">
          <mxGeometry width="50" height="50" as="geometry" />
        </mxCell>
        <mxCell id="8P9D--Pd9AcajZx-1P5X-35" value="" style="group" vertex="1" connectable="0" parent="1">
          <mxGeometry x="584" y="948" width="50" height="50" as="geometry" />
        </mxCell>
        <mxCell id="8P9D--Pd9AcajZx-1P5X-36" value="" style="sketch=0;points=[[0.5,0,0],[1,0.5,0],[0.5,1,0],[0,0.5,0],[0.145,0.145,0],[0.8555,0.145,0],[0.855,0.8555,0],[0.145,0.855,0]];verticalLabelPosition=bottom;html=1;verticalAlign=top;aspect=fixed;align=center;pointerEvents=1;shape=mxgraph.cisco19.rect;prIcon=router;fillColor=#FAFAFA;strokeColor=#005073;fontFamily=Helvetica;fontSize=11;fontColor=default;" vertex="1" parent="8P9D--Pd9AcajZx-1P5X-35">
          <mxGeometry width="50" height="50" as="geometry" />
        </mxCell>
        <mxCell id="8P9D--Pd9AcajZx-1P5X-37" style="edgeStyle=orthogonalEdgeStyle;rounded=0;orthogonalLoop=1;jettySize=auto;html=1;exitX=1;exitY=0.5;exitDx=0;exitDy=0;exitPerimeter=0;endArrow=none;endFill=0;" edge="1" parent="1" source="8P9D--Pd9AcajZx-1P5X-34" target="8P9D--Pd9AcajZx-1P5X-36">
          <mxGeometry relative="1" as="geometry" />
        </mxCell>
        <mxCell id="8P9D--Pd9AcajZx-1P5X-38" style="edgeStyle=orthogonalEdgeStyle;rounded=0;orthogonalLoop=1;jettySize=auto;html=1;exitX=1;exitY=0.5;exitDx=0;exitDy=0;exitPerimeter=0;endArrow=none;endFill=0;" edge="1" parent="1" source="8P9D--Pd9AcajZx-1P5X-36">
          <mxGeometry relative="1" as="geometry">
            <mxPoint x="714" y="973.0000000000002" as="targetPoint" />
          </mxGeometry>
        </mxCell>
        <mxCell id="8P9D--Pd9AcajZx-1P5X-39" style="edgeStyle=orthogonalEdgeStyle;rounded=0;orthogonalLoop=1;jettySize=auto;html=1;exitX=1;exitY=0.5;exitDx=0;exitDy=0;exitPerimeter=0;endArrow=none;endFill=0;entryX=0;entryY=0.5;entryDx=0;entryDy=0;entryPerimeter=0;" edge="1" parent="1" source="8P9D--Pd9AcajZx-1P5X-30" target="8P9D--Pd9AcajZx-1P5X-34">
          <mxGeometry relative="1" as="geometry">
            <mxPoint x="524" y="983" as="sourcePoint" />
            <mxPoint x="594" y="983" as="targetPoint" />
          </mxGeometry>
        </mxCell>
        <mxCell id="8P9D--Pd9AcajZx-1P5X-43" value="Router" style="text;html=1;strokeColor=none;fillColor=none;align=center;verticalAlign=middle;whiteSpace=wrap;rounded=0;" vertex="1" parent="1">
          <mxGeometry x="209" y="998" width="60" height="30" as="geometry" />
        </mxCell>
        <mxCell id="8P9D--Pd9AcajZx-1P5X-44" value="Router" style="text;html=1;strokeColor=none;fillColor=none;align=center;verticalAlign=middle;whiteSpace=wrap;rounded=0;" vertex="1" parent="1">
          <mxGeometry x="339" y="998" width="60" height="30" as="geometry" />
        </mxCell>
        <mxCell id="8P9D--Pd9AcajZx-1P5X-45" value="Router" style="text;html=1;strokeColor=none;fillColor=none;align=center;verticalAlign=middle;whiteSpace=wrap;rounded=0;" vertex="1" parent="1">
          <mxGeometry x="459" y="998" width="60" height="30" as="geometry" />
        </mxCell>
        <mxCell id="8P9D--Pd9AcajZx-1P5X-46" value="Router" style="text;html=1;strokeColor=none;fillColor=none;align=center;verticalAlign=middle;whiteSpace=wrap;rounded=0;" vertex="1" parent="1">
          <mxGeometry x="579" y="998" width="60" height="30" as="geometry" />
        </mxCell>
        <mxCell id="8P9D--Pd9AcajZx-1P5X-47" value="Alpine ISP 02&lt;br&gt;203.0.113.100/24" style="text;html=1;strokeColor=none;fillColor=none;align=center;verticalAlign=middle;whiteSpace=wrap;rounded=0;" vertex="1" parent="1">
          <mxGeometry x="697" y="1006" width="81" height="30" as="geometry" />
        </mxCell>
        <mxCell id="8P9D--Pd9AcajZx-1P5X-48" value="" style="image;sketch=0;aspect=fixed;html=1;points=[];align=center;fontSize=12;image=img/lib/mscae/VM_Linux.svg;" vertex="1" parent="1">
          <mxGeometry x="93" y="950" width="50" height="46" as="geometry" />
        </mxCell>
        <mxCell id="8P9D--Pd9AcajZx-1P5X-49" value="" style="image;sketch=0;aspect=fixed;html=1;points=[];align=center;fontSize=12;image=img/lib/mscae/Docker.svg;" vertex="1" parent="1">
          <mxGeometry x="123" y="955" width="19" height="15.58" as="geometry" />
        </mxCell>
        <mxCell id="8P9D--Pd9AcajZx-1P5X-50" value="" style="image;sketch=0;aspect=fixed;html=1;points=[];align=center;fontSize=12;image=img/lib/mscae/VM_Linux.svg;" vertex="1" parent="1">
          <mxGeometry x="713" y="955" width="50" height="46" as="geometry" />
        </mxCell>
        <mxCell id="8P9D--Pd9AcajZx-1P5X-51" value="" style="image;sketch=0;aspect=fixed;html=1;points=[];align=center;fontSize=12;image=img/lib/mscae/Docker.svg;" vertex="1" parent="1">
          <mxGeometry x="743" y="960" width="19" height="15.58" as="geometry" />
        </mxCell>
        <mxCell id="8P9D--Pd9AcajZx-1P5X-53" value="Alpine ISP 01&lt;br&gt;192.0.2.100/24" style="text;html=1;strokeColor=none;fillColor=none;align=center;verticalAlign=middle;whiteSpace=wrap;rounded=0;" vertex="1" parent="1">
          <mxGeometry x="77.5" y="1004" width="81" height="30" as="geometry" />
        </mxCell>
        <mxCell id="8P9D--Pd9AcajZx-1P5X-55" style="rounded=0;orthogonalLoop=1;jettySize=auto;html=1;endArrow=none;endFill=0;strokeColor=#ff0000;" edge="1" parent="1">
          <mxGeometry relative="1" as="geometry">
            <mxPoint x="765" y="889" as="sourcePoint" />
            <mxPoint x="82" y="889" as="targetPoint" />
          </mxGeometry>
        </mxCell>
        <mxCell id="8P9D--Pd9AcajZx-1P5X-58" value="" style="endArrow=none;html=1;rounded=0;exitX=0.489;exitY=0.016;exitDx=0;exitDy=0;exitPerimeter=0;strokeColor=#ff0000;" edge="1" parent="1" source="8P9D--Pd9AcajZx-1P5X-50">
          <mxGeometry width="50" height="50" relative="1" as="geometry">
            <mxPoint x="736.88" y="950" as="sourcePoint" />
            <mxPoint x="736.88" y="889" as="targetPoint" />
          </mxGeometry>
        </mxCell>
        <mxCell id="8P9D--Pd9AcajZx-1P5X-59" value="" style="endArrow=none;html=1;rounded=0;entryX=0.5;entryY=0;entryDx=0;entryDy=0;entryPerimeter=0;fillColor=#e51400;strokeColor=#ff0000;" edge="1" parent="1" target="8P9D--Pd9AcajZx-1P5X-36">
          <mxGeometry width="50" height="50" relative="1" as="geometry">
            <mxPoint x="609" y="889" as="sourcePoint" />
            <mxPoint x="746.88" y="899" as="targetPoint" />
          </mxGeometry>
        </mxCell>
        <mxCell id="8P9D--Pd9AcajZx-1P5X-60" value="" style="endArrow=none;html=1;rounded=0;exitX=0.5;exitY=0;exitDx=0;exitDy=0;exitPerimeter=0;fillColor=#e51400;strokeColor=#ff0000;" edge="1" parent="1" source="8P9D--Pd9AcajZx-1P5X-34">
          <mxGeometry width="50" height="50" relative="1" as="geometry">
            <mxPoint x="619" y="899" as="sourcePoint" />
            <mxPoint x="490" y="889" as="targetPoint" />
          </mxGeometry>
        </mxCell>
        <mxCell id="8P9D--Pd9AcajZx-1P5X-61" value="" style="endArrow=none;html=1;rounded=0;fillColor=#e51400;strokeColor=#ff0000;entryX=0.5;entryY=0;entryDx=0;entryDy=0;entryPerimeter=0;" edge="1" parent="1" target="8P9D--Pd9AcajZx-1P5X-30">
          <mxGeometry width="50" height="50" relative="1" as="geometry">
            <mxPoint x="370" y="889" as="sourcePoint" />
            <mxPoint x="489.5" y="889" as="targetPoint" />
          </mxGeometry>
        </mxCell>
        <mxCell id="8P9D--Pd9AcajZx-1P5X-62" value="" style="endArrow=none;html=1;rounded=0;fillColor=#e51400;strokeColor=#ff0000;exitX=0.5;exitY=0;exitDx=0;exitDy=0;exitPerimeter=0;" edge="1" parent="1" source="8P9D--Pd9AcajZx-1P5X-28">
          <mxGeometry width="50" height="50" relative="1" as="geometry">
            <mxPoint x="380" y="899" as="sourcePoint" />
            <mxPoint x="239" y="889" as="targetPoint" />
          </mxGeometry>
        </mxCell>
        <mxCell id="8P9D--Pd9AcajZx-1P5X-63" value="" style="endArrow=none;html=1;rounded=0;fillColor=#e51400;strokeColor=#ff0000;exitX=0.475;exitY=0.015;exitDx=0;exitDy=0;exitPerimeter=0;" edge="1" parent="1" source="8P9D--Pd9AcajZx-1P5X-48">
          <mxGeometry width="50" height="50" relative="1" as="geometry">
            <mxPoint x="390" y="909" as="sourcePoint" />
            <mxPoint x="118" y="889" as="targetPoint" />
          </mxGeometry>
        </mxCell>
        <mxCell id="8P9D--Pd9AcajZx-1P5X-64" value="Docker clab Network" style="text;html=1;strokeColor=none;fillColor=none;align=center;verticalAlign=middle;whiteSpace=wrap;rounded=0;fontColor=#FF0000;" vertex="1" parent="1">
          <mxGeometry x="337" y="860" width="159" height="30" as="geometry" />
        </mxCell>
        <mxCell id="8P9D--Pd9AcajZx-1P5X-65" value="eth0" style="text;html=1;strokeColor=none;fillColor=none;align=center;verticalAlign=middle;whiteSpace=wrap;rounded=0;fontColor=#ff0000;" vertex="1" parent="1">
          <mxGeometry x="73" y="925" width="54" height="30" as="geometry" />
        </mxCell>
        <mxCell id="8P9D--Pd9AcajZx-1P5X-66" value="eth1" style="text;html=1;strokeColor=none;fillColor=none;align=center;verticalAlign=middle;whiteSpace=wrap;rounded=0;fontColor=#000000;" vertex="1" parent="1">
          <mxGeometry x="136" y="950" width="54" height="30" as="geometry" />
        </mxCell>
        <mxCell id="8P9D--Pd9AcajZx-1P5X-67" value="eth1" style="text;html=1;strokeColor=none;fillColor=none;align=center;verticalAlign=middle;whiteSpace=wrap;rounded=0;fontColor=#000000;" vertex="1" parent="1">
          <mxGeometry x="672" y="950" width="54" height="30" as="geometry" />
        </mxCell>
        <mxCell id="8P9D--Pd9AcajZx-1P5X-68" value="eth0" style="text;html=1;strokeColor=none;fillColor=none;align=center;verticalAlign=middle;whiteSpace=wrap;rounded=0;fontColor=#ff0000;" vertex="1" parent="1">
          <mxGeometry x="695" y="930" width="54" height="30" as="geometry" />
        </mxCell>
        <mxCell id="8P9D--Pd9AcajZx-1P5X-69" value="" style="group" vertex="1" connectable="0" parent="1">
          <mxGeometry x="205" y="579" width="50" height="50" as="geometry" />
        </mxCell>
        <mxCell id="8P9D--Pd9AcajZx-1P5X-70" value="" style="sketch=0;points=[[0.5,0,0],[1,0.5,0],[0.5,1,0],[0,0.5,0],[0.145,0.145,0],[0.8555,0.145,0],[0.855,0.8555,0],[0.145,0.855,0]];verticalLabelPosition=bottom;html=1;verticalAlign=top;aspect=fixed;align=center;pointerEvents=1;shape=mxgraph.cisco19.rect;prIcon=router;fillColor=#FAFAFA;strokeColor=#005073;fontFamily=Helvetica;fontSize=11;fontColor=default;" vertex="1" parent="8P9D--Pd9AcajZx-1P5X-69">
          <mxGeometry width="50" height="50" as="geometry" />
        </mxCell>
        <mxCell id="8P9D--Pd9AcajZx-1P5X-71" value="" style="group" vertex="1" connectable="0" parent="1">
          <mxGeometry x="335" y="579" width="50" height="50" as="geometry" />
        </mxCell>
        <mxCell id="8P9D--Pd9AcajZx-1P5X-72" value="" style="sketch=0;points=[[0.5,0,0],[1,0.5,0],[0.5,1,0],[0,0.5,0],[0.145,0.145,0],[0.8555,0.145,0],[0.855,0.8555,0],[0.145,0.855,0]];verticalLabelPosition=bottom;html=1;verticalAlign=top;aspect=fixed;align=center;pointerEvents=1;shape=mxgraph.cisco19.rect;prIcon=router;fillColor=#FAFAFA;strokeColor=#005073;fontFamily=Helvetica;fontSize=11;fontColor=default;" vertex="1" parent="8P9D--Pd9AcajZx-1P5X-71">
          <mxGeometry width="50" height="50" as="geometry" />
        </mxCell>
        <mxCell id="8P9D--Pd9AcajZx-1P5X-73" style="edgeStyle=orthogonalEdgeStyle;rounded=0;orthogonalLoop=1;jettySize=auto;html=1;exitX=1;exitY=0.5;exitDx=0;exitDy=0;exitPerimeter=0;endArrow=none;endFill=0;" edge="1" parent="1" target="8P9D--Pd9AcajZx-1P5X-70">
          <mxGeometry relative="1" as="geometry">
            <mxPoint x="135" y="604.0000000000002" as="sourcePoint" />
          </mxGeometry>
        </mxCell>
        <mxCell id="8P9D--Pd9AcajZx-1P5X-74" style="edgeStyle=orthogonalEdgeStyle;rounded=0;orthogonalLoop=1;jettySize=auto;html=1;exitX=1;exitY=0.5;exitDx=0;exitDy=0;exitPerimeter=0;endArrow=none;endFill=0;" edge="1" parent="1" source="8P9D--Pd9AcajZx-1P5X-70" target="8P9D--Pd9AcajZx-1P5X-72">
          <mxGeometry relative="1" as="geometry" />
        </mxCell>
        <mxCell id="8P9D--Pd9AcajZx-1P5X-75" value="" style="group" vertex="1" connectable="0" parent="1">
          <mxGeometry x="455" y="579" width="50" height="50" as="geometry" />
        </mxCell>
        <mxCell id="8P9D--Pd9AcajZx-1P5X-76" value="" style="sketch=0;points=[[0.5,0,0],[1,0.5,0],[0.5,1,0],[0,0.5,0],[0.145,0.145,0],[0.8555,0.145,0],[0.855,0.8555,0],[0.145,0.855,0]];verticalLabelPosition=bottom;html=1;verticalAlign=top;aspect=fixed;align=center;pointerEvents=1;shape=mxgraph.cisco19.rect;prIcon=router;fillColor=#FAFAFA;strokeColor=#005073;fontFamily=Helvetica;fontSize=11;fontColor=default;" vertex="1" parent="8P9D--Pd9AcajZx-1P5X-75">
          <mxGeometry width="50" height="50" as="geometry" />
        </mxCell>
        <mxCell id="8P9D--Pd9AcajZx-1P5X-77" value="" style="group" vertex="1" connectable="0" parent="1">
          <mxGeometry x="575" y="579" width="50" height="50" as="geometry" />
        </mxCell>
        <mxCell id="8P9D--Pd9AcajZx-1P5X-78" value="" style="sketch=0;points=[[0.5,0,0],[1,0.5,0],[0.5,1,0],[0,0.5,0],[0.145,0.145,0],[0.8555,0.145,0],[0.855,0.8555,0],[0.145,0.855,0]];verticalLabelPosition=bottom;html=1;verticalAlign=top;aspect=fixed;align=center;pointerEvents=1;shape=mxgraph.cisco19.rect;prIcon=router;fillColor=#FAFAFA;strokeColor=#005073;fontFamily=Helvetica;fontSize=11;fontColor=default;" vertex="1" parent="8P9D--Pd9AcajZx-1P5X-77">
          <mxGeometry width="50" height="50" as="geometry" />
        </mxCell>
        <mxCell id="8P9D--Pd9AcajZx-1P5X-79" style="edgeStyle=orthogonalEdgeStyle;rounded=0;orthogonalLoop=1;jettySize=auto;html=1;exitX=1;exitY=0.5;exitDx=0;exitDy=0;exitPerimeter=0;endArrow=none;endFill=0;" edge="1" parent="1" source="8P9D--Pd9AcajZx-1P5X-76" target="8P9D--Pd9AcajZx-1P5X-78">
          <mxGeometry relative="1" as="geometry" />
        </mxCell>
        <mxCell id="8P9D--Pd9AcajZx-1P5X-80" style="edgeStyle=orthogonalEdgeStyle;rounded=0;orthogonalLoop=1;jettySize=auto;html=1;exitX=1;exitY=0.5;exitDx=0;exitDy=0;exitPerimeter=0;endArrow=none;endFill=0;" edge="1" parent="1" source="8P9D--Pd9AcajZx-1P5X-78">
          <mxGeometry relative="1" as="geometry">
            <mxPoint x="705" y="604.0000000000002" as="targetPoint" />
          </mxGeometry>
        </mxCell>
        <mxCell id="8P9D--Pd9AcajZx-1P5X-81" style="edgeStyle=orthogonalEdgeStyle;rounded=0;orthogonalLoop=1;jettySize=auto;html=1;exitX=1;exitY=0.5;exitDx=0;exitDy=0;exitPerimeter=0;endArrow=none;endFill=0;entryX=0;entryY=0.5;entryDx=0;entryDy=0;entryPerimeter=0;" edge="1" parent="1" source="8P9D--Pd9AcajZx-1P5X-72" target="8P9D--Pd9AcajZx-1P5X-76">
          <mxGeometry relative="1" as="geometry">
            <mxPoint x="515" y="614" as="sourcePoint" />
            <mxPoint x="585" y="614" as="targetPoint" />
          </mxGeometry>
        </mxCell>
        <mxCell id="8P9D--Pd9AcajZx-1P5X-82" value="Router" style="text;html=1;strokeColor=none;fillColor=none;align=center;verticalAlign=middle;whiteSpace=wrap;rounded=0;" vertex="1" parent="1">
          <mxGeometry x="200" y="629" width="60" height="30" as="geometry" />
        </mxCell>
        <mxCell id="8P9D--Pd9AcajZx-1P5X-83" value="Router" style="text;html=1;strokeColor=none;fillColor=none;align=center;verticalAlign=middle;whiteSpace=wrap;rounded=0;" vertex="1" parent="1">
          <mxGeometry x="330" y="629" width="60" height="30" as="geometry" />
        </mxCell>
        <mxCell id="8P9D--Pd9AcajZx-1P5X-84" value="Router" style="text;html=1;strokeColor=none;fillColor=none;align=center;verticalAlign=middle;whiteSpace=wrap;rounded=0;" vertex="1" parent="1">
          <mxGeometry x="450" y="629" width="60" height="30" as="geometry" />
        </mxCell>
        <mxCell id="8P9D--Pd9AcajZx-1P5X-85" value="Router" style="text;html=1;strokeColor=none;fillColor=none;align=center;verticalAlign=middle;whiteSpace=wrap;rounded=0;" vertex="1" parent="1">
          <mxGeometry x="570" y="629" width="60" height="30" as="geometry" />
        </mxCell>
        <mxCell id="8P9D--Pd9AcajZx-1P5X-86" value="Alpine ISP 02&lt;br&gt;203.0.113.100/24" style="text;html=1;strokeColor=none;fillColor=none;align=center;verticalAlign=middle;whiteSpace=wrap;rounded=0;" vertex="1" parent="1">
          <mxGeometry x="688" y="637" width="81" height="30" as="geometry" />
        </mxCell>
        <mxCell id="8P9D--Pd9AcajZx-1P5X-87" value="" style="image;sketch=0;aspect=fixed;html=1;points=[];align=center;fontSize=12;image=img/lib/mscae/VM_Linux.svg;" vertex="1" parent="1">
          <mxGeometry x="84" y="581" width="50" height="46" as="geometry" />
        </mxCell>
        <mxCell id="8P9D--Pd9AcajZx-1P5X-88" value="" style="image;sketch=0;aspect=fixed;html=1;points=[];align=center;fontSize=12;image=img/lib/mscae/Docker.svg;" vertex="1" parent="1">
          <mxGeometry x="114" y="586" width="19" height="15.58" as="geometry" />
        </mxCell>
        <mxCell id="8P9D--Pd9AcajZx-1P5X-89" value="" style="image;sketch=0;aspect=fixed;html=1;points=[];align=center;fontSize=12;image=img/lib/mscae/VM_Linux.svg;" vertex="1" parent="1">
          <mxGeometry x="704" y="586" width="50" height="46" as="geometry" />
        </mxCell>
        <mxCell id="8P9D--Pd9AcajZx-1P5X-90" value="" style="image;sketch=0;aspect=fixed;html=1;points=[];align=center;fontSize=12;image=img/lib/mscae/Docker.svg;" vertex="1" parent="1">
          <mxGeometry x="734" y="591" width="19" height="15.58" as="geometry" />
        </mxCell>
        <mxCell id="8P9D--Pd9AcajZx-1P5X-91" value="Alpine ISP 01&lt;br&gt;192.0.2.100/24" style="text;html=1;strokeColor=none;fillColor=none;align=center;verticalAlign=middle;whiteSpace=wrap;rounded=0;" vertex="1" parent="1">
          <mxGeometry x="68.5" y="635" width="81" height="30" as="geometry" />
        </mxCell>
        <mxCell id="8P9D--Pd9AcajZx-1P5X-101" value="eth1" style="text;html=1;strokeColor=none;fillColor=none;align=center;verticalAlign=middle;whiteSpace=wrap;rounded=0;fontColor=#000000;" vertex="1" parent="1">
          <mxGeometry x="127" y="581" width="54" height="30" as="geometry" />
        </mxCell>
        <mxCell id="8P9D--Pd9AcajZx-1P5X-102" value="eth1" style="text;html=1;strokeColor=none;fillColor=none;align=center;verticalAlign=middle;whiteSpace=wrap;rounded=0;fontColor=#000000;" vertex="1" parent="1">
          <mxGeometry x="663" y="581" width="54" height="30" as="geometry" />
        </mxCell>
        <mxCell id="8P9D--Pd9AcajZx-1P5X-103" value="eth0" style="text;html=1;strokeColor=none;fillColor=none;align=center;verticalAlign=middle;whiteSpace=wrap;rounded=0;fontColor=#ff0000;" vertex="1" parent="1">
          <mxGeometry x="686" y="561" width="54" height="30" as="geometry" />
        </mxCell>
      </root>
    </mxGraphModel>
  </diagram>
</mxfile>
